<svg version="1.1" id="Layer_1" xmlns="http://www.w3.org/2000/svg" xmlns:xlink="http://www.w3.org/1999/xlink" x="0px" y="0px"
	 width="100%" viewBox="0 0 975 606" enable-background="new 0 0 975 606" xml:space="preserve">
<path fill="#FEFEFF" opacity="1.000000" stroke="none" 
	d="
M976.000000,26.000000 
	C976.000000,219.640793 976.000000,413.281586 976.000000,606.961182 
	C651.069336,606.961182 326.138611,606.961182 1.103967,606.961182 
	C1.103967,405.096344 1.103967,203.192627 1.103967,1.000000 
	C318.027985,1.000000 635.056030,1.000000 952.544678,1.468473 
	C953.297363,8.713731 953.608032,15.489787 953.873108,22.267628 
	C953.993958,25.358473 955.811523,26.069773 958.539062,26.024229 
	C964.357910,25.927065 970.179504,25.997961 976.000000,26.000000 
M425.324921,310.233582 
	C425.217560,310.822754 425.110229,311.411896 424.429596,312.349915 
	C412.578552,332.823700 400.723206,353.294983 388.877991,373.772156 
	C380.619507,388.048859 372.449524,402.377411 364.096069,416.598267 
	C359.077332,425.142181 357.498535,433.618774 363.427795,442.381683 
	C363.550079,442.562408 363.341248,442.967194 363.170502,443.910553 
	C361.530701,443.910553 359.764648,443.910492 357.998596,443.910522 
	C328.006866,443.910614 298.015106,443.908508 268.023376,443.916290 
	C266.192108,443.916779 264.343170,443.848999 262.532928,444.066376 
	C257.581451,444.661011 254.168411,448.295563 254.005783,452.964294 
	C253.831085,457.979797 257.014587,462.057251 261.988190,462.928833 
	C263.776062,463.242126 265.638611,463.200500 267.467102,463.200653 
	C403.596283,463.211914 539.725464,463.212219 675.854675,463.200012 
	C677.849426,463.199860 679.881348,463.243713 681.831665,462.901184 
	C686.808655,462.027100 690.072693,457.811615 689.784119,452.927887 
	C689.505249,448.208771 686.093445,444.600647 681.200928,444.056152 
	C679.223022,443.836090 677.208069,443.915619 675.209961,443.915497 
	C583.401917,443.909912 491.593842,443.910614 399.785767,443.910583 
	C397.778564,443.910583 395.771362,443.910583 393.433380,443.910583 
	C393.907349,442.562927 393.937897,442.188995 394.135101,441.956116 
	C410.820740,422.252380 427.561279,402.594879 444.203583,382.854645 
	C457.297424,367.323425 470.271301,351.691071 484.195221,335.973358 
	C486.181702,335.849426 488.168091,335.619293 490.154663,335.617584 
	C517.471497,335.593903 544.788391,335.612732 572.105225,335.584259 
	C574.763672,335.581482 577.436035,335.464813 580.077881,335.178619 
	C593.128174,333.764893 602.083435,323.599823 602.108643,310.456512 
	C602.125244,301.811310 597.971558,295.270966 592.118286,289.431946 
	C571.599792,268.963318 551.125610,248.450287 530.624084,227.964722 
	C528.721375,226.063492 526.769226,224.550705 528.741028,221.243286 
	C536.159180,208.800186 543.298950,196.191299 550.603088,183.679611 
	C551.161316,182.723328 552.188660,182.040909 553.588074,181.703125 
	C566.299500,189.950195 578.936584,198.315567 591.764832,206.376816 
	C595.954529,209.009644 600.466614,211.372711 605.139343,212.941299 
	C613.912964,215.886536 619.676880,213.724640 625.172546,206.342438 
	C641.876099,183.905060 658.632996,161.506775 675.190430,138.962082 
	C677.297791,136.092697 679.040955,132.587036 679.750427,129.129395 
	C681.832214,118.984375 673.090820,111.098137 663.363770,114.609634 
	C658.845215,116.240837 654.505920,119.299446 651.012024,122.671272 
	C638.193542,135.042084 625.769043,147.820969 613.179688,160.429733 
	C611.934265,161.677094 610.575562,162.811478 608.093689,165.066696 
	C606.479187,162.829773 605.342224,160.707092 603.710693,159.080551 
	C590.510986,145.921097 577.218506,132.854828 563.799683,119.128288 
	C557.018005,114.148888 550.735718,108.212311 543.362976,104.365967 
	C519.320068,91.822868 494.901276,79.997765 470.567810,68.016792 
	C466.862152,66.192245 462.944366,64.594406 458.948151,63.603836 
	C448.506866,61.015659 442.267548,63.963173 436.962158,73.252167 
	C426.235107,92.033699 415.448883,110.781395 404.696442,129.548431 
	C401.343262,135.401016 398.020142,141.270844 394.726318,147.057053 
	C386.349121,143.890045 382.961884,145.065262 378.572083,152.353851 
	C377.885620,153.493637 377.220734,154.648972 376.602814,155.826965 
	C375.341919,158.230713 373.836151,158.666885 371.389160,157.137360 
	C366.736572,154.229187 361.946472,151.530182 357.127441,148.902039 
	C351.942383,146.074295 347.113373,147.019379 344.038544,151.801758 
	C341.360168,155.967468 339.229126,160.485077 336.290283,165.214035 
	C328.751923,178.172165 321.120392,191.077393 313.716980,204.112198 
	C310.338654,210.060257 311.821960,214.964127 317.834595,218.457321 
	C343.910156,233.606598 370.008514,248.716949 396.146088,263.758911 
	C402.331299,267.318451 407.200623,265.942841 410.899261,259.690887 
	C416.922119,249.510315 422.826447,239.258926 428.704559,228.993790 
	C430.347656,226.124451 431.723206,223.101913 433.825226,219.840912 
	C435.552948,216.997345 437.312714,214.172668 439.002380,211.306671 
	C444.000305,202.829269 442.772339,198.291199 434.190308,193.352509 
	C429.335999,190.559006 424.484802,187.760132 419.640320,184.968353 
	C421.787292,180.409424 424.870758,176.593124 425.089081,172.619385 
	C425.301392,168.755493 422.577301,164.730255 421.142609,160.775848 
	C420.847809,159.534760 421.851471,158.023865 422.974609,156.607727 
	C433.729126,143.047836 444.645050,129.612274 455.176514,115.881645 
	C457.914459,112.311935 459.701416,112.731766 462.689819,115.211967 
	C469.602905,120.949394 476.718567,126.443825 483.783020,131.997421 
	C490.604767,137.360168 489.588226,135.937347 485.816254,142.517532 
	C472.905304,165.040619 460.020569,187.582123 446.785095,209.914673 
	C436.931061,226.541595 439.982819,248.503281 452.771851,258.286316 
	C453.483643,258.830750 453.774109,259.925995 453.826599,261.369263 
	C446.774445,273.788788 439.722260,286.208313 432.127441,298.996460 
	C431.150238,300.663971 430.173035,302.331512 428.794434,304.538574 
	C428.193848,305.686798 427.593292,306.834991 426.384094,308.169861 
	C426.215485,308.769958 426.046844,309.370056 425.324921,310.233582 
M633.246216,496.027435 
	C623.027588,496.010468 623.255737,496.049316 622.008911,503.372253 
	C617.935608,527.295471 613.684509,551.188354 609.492981,575.091431 
	C608.367798,581.508057 607.211609,587.919312 605.958496,594.957336 
	C610.151245,594.957336 613.598999,594.957336 617.974976,595.025879 
	C622.291992,595.023499 626.621582,594.817078 630.921997,595.083374 
	C634.359131,595.296143 635.413269,593.867371 635.967102,590.644897 
	C640.043945,566.927246 644.340942,543.247620 648.519409,519.547302 
	C649.857178,511.959259 651.046875,504.345093 652.403259,496.144836 
	C645.713135,496.144836 639.942505,496.144836 633.246216,496.027435 
M476.336060,496.068420 
	C466.297028,495.926666 466.587891,495.976044 464.996948,505.345947 
	C460.655029,530.917664 456.024933,556.440308 451.559082,581.991211 
	C450.839691,586.107239 450.377319,590.268188 449.727875,594.894531 
	C453.885986,594.894531 457.010315,594.894531 461.049377,595.001160 
	C465.207611,595.007019 469.378601,594.813843 473.520233,595.078979 
	C477.122009,595.309570 478.684937,594.310242 479.340698,590.395691 
	C483.323303,566.622437 487.649200,542.906921 491.838104,519.168091 
	C493.155823,511.700653 494.404724,504.221069 495.774109,496.227722 
	C489.150940,496.227722 483.212769,496.227722 476.336060,496.068420 
M166.012497,595.007568 
	C176.317963,595.010559 186.623489,595.034180 196.928894,595.010498 
	C206.778748,594.987854 212.202606,590.351746 213.960373,580.461914 
	C217.507339,560.505188 221.049194,540.547607 224.556931,520.583984 
	C225.952591,512.640991 227.252136,504.681152 228.682480,496.213684 
	C222.136688,496.213684 216.198746,496.213684 209.323700,496.063629 
	C208.161270,496.050873 206.975082,496.184326 205.840561,495.999908 
	C201.148514,495.237091 199.259232,497.024109 198.451309,501.896515 
	C194.184402,527.629395 189.513611,553.295227 184.059097,579.129089 
	C178.539032,579.245056 173.018982,579.361023 166.542801,579.204834 
	C156.936523,578.773499 156.907822,578.768311 155.220718,588.104980 
	C154.844864,590.184998 154.748764,592.315552 154.470337,594.924438 
	C158.179962,594.924438 161.634689,594.924438 166.012497,595.007568 
M527.836853,594.222046 
	C542.618530,594.472534 557.399841,594.755676 572.182617,594.884155 
	C572.987244,594.891113 574.332764,593.728088 574.525024,592.900330 
	C575.520691,588.612610 576.223145,584.256775 577.164734,579.187317 
	C564.975159,579.187317 553.731567,579.187317 541.941833,579.187317 
	C546.845947,551.264160 551.629456,524.028137 556.527039,496.142426 
	C549.740295,496.142426 543.955994,496.142426 537.245056,496.022949 
	C535.914551,496.023102 534.563171,496.174866 533.257324,495.995575 
	C528.982361,495.408630 527.307373,497.007141 526.546936,501.481232 
	C521.948853,528.535217 516.898499,555.511963 512.155762,582.541931 
	C510.571564,591.570435 519.069763,597.510193 527.836853,594.222046 
M684.826660,594.254639 
	C685.958679,594.513733 687.089966,594.994568 688.222778,594.998047 
	C701.048889,595.037231 713.879211,595.186035 726.699951,594.911255 
	C733.017517,594.775940 738.680603,589.658386 740.025024,583.234558 
	C741.592957,575.742981 742.884216,568.185303 744.034668,560.616638 
	C745.382874,551.747375 742.613831,546.366943 734.846191,542.018372 
	C727.434570,537.869019 720.055908,533.656860 712.568237,529.649109 
	C709.294067,527.896667 708.235107,525.572021 708.747681,521.905151 
	C710.184753,511.625580 710.076050,511.605774 720.409912,511.914612 
	C721.237793,511.939331 722.062012,512.086243 722.924500,513.010803 
	C722.607605,516.494141 722.290710,519.977478 721.923218,524.017578 
	C725.806702,524.017578 728.895996,524.017578 732.912781,524.184265 
	C737.573181,524.202698 742.237854,524.107361 746.892334,524.282776 
	C749.607910,524.385132 750.748657,523.365540 751.089172,520.666138 
	C751.609192,516.543213 752.616272,512.483643 753.205261,508.366974 
	C754.204956,501.379639 749.901611,496.290955 742.873779,496.093658 
	C738.547241,495.972198 734.212769,495.924896 729.886658,496.035065 
	C720.262390,496.280151 710.641052,496.645050 700.465454,496.388306 
	C690.012634,495.187012 683.844238,499.597656 681.903259,509.647064 
	C681.338806,512.569580 680.674011,515.474304 680.171997,518.407166 
	C677.253357,535.458191 678.675110,538.259766 693.998291,546.501953 
	C699.699890,549.568787 705.314758,552.797119 710.960022,555.968262 
	C714.220764,557.799927 715.615479,560.196106 714.556519,564.203308 
	C713.293579,568.982727 712.746765,573.951355 710.999817,579.028870 
	C708.237976,579.080017 705.476257,579.157776 702.714172,579.174744 
	C699.966492,579.191650 698.778687,577.945984 700.079468,574.974731 
	C700.065796,574.324280 700.052063,573.673889 700.062012,572.236145 
	C700.266418,571.212769 700.470825,570.189331 701.131348,568.932556 
	C700.794922,568.270630 700.458557,567.608643 699.174988,566.851685 
	C693.763123,566.813721 688.351318,566.775757 682.309692,566.272888 
	C679.985352,566.223511 677.583435,565.797668 675.363525,566.255127 
	C673.847595,566.567627 671.680176,567.890930 671.372192,569.146851 
	C670.234009,573.787781 669.771973,578.592590 669.010986,583.328491 
	C667.765259,591.081970 674.520874,597.618164 684.826660,594.254639 
M276.523285,496.459259 
	C266.942322,495.122101 259.610596,500.688263 258.023285,510.064209 
	C253.966995,534.024353 249.810318,557.968323 245.508224,581.885315 
	C244.709961,586.323303 245.841217,589.716614 249.079193,592.561646 
	C252.389877,595.470581 256.081879,595.894897 260.862244,594.139526 
	C262.153259,594.440674 263.443298,594.998596 264.735382,595.003296 
	C277.557587,595.050171 290.384308,595.194580 303.200775,594.907959 
	C309.720825,594.762085 315.373627,589.575439 316.619873,582.710205 
	C321.108215,557.984863 325.476440,533.236328 329.648712,508.455902 
	C330.887024,501.101196 326.372589,496.264801 318.894165,496.082947 
	C315.731567,496.006042 312.563751,495.942596 309.402893,496.032837 
	C298.615936,496.340729 287.830963,496.719696 276.523285,496.459259 
M373.340302,496.060944 
	C372.177185,496.048431 370.991486,496.178436 369.854919,495.998383 
	C365.188873,495.259247 363.254181,496.975372 362.441528,501.884766 
	C358.205963,527.472290 353.529541,552.986633 349.062866,578.536316 
	C348.144135,583.791565 347.465302,589.088745 346.593750,594.915833 
	C350.860138,594.915833 353.983215,594.915833 358.026306,595.009888 
	C373.329681,595.010986 388.633179,595.044434 403.936432,595.000305 
	C412.348175,594.976074 418.112793,590.360168 419.801086,582.048706 
	C421.289917,574.719360 422.449341,567.322449 423.715332,559.948730 
	C424.750519,553.919128 426.668060,547.751343 421.604370,543.788696 
	C424.260529,539.611816 427.458160,536.446228 428.407074,532.709534 
	C430.486298,524.521973 431.681793,516.077576 432.748871,507.675903 
	C433.592468,501.033875 429.298584,496.180511 422.673676,496.132507 
	C406.543091,496.015656 390.410492,496.176941 373.340302,496.060944 
M540.556824,33.070248 
	C532.617737,43.983410 529.738525,56.005104 532.004700,69.402916 
	C536.036133,93.238350 557.537415,109.672081 582.645203,107.834938 
	C605.041809,106.196167 624.182068,86.014336 624.902222,63.278362 
	C625.545837,42.961140 613.475037,24.485600 594.927856,17.399414 
	C575.735535,10.066754 554.489380,16.016600 540.556824,33.070248 
M292.784210,108.008430 
	C289.967682,108.776855 286.773285,108.952591 284.422302,110.451294 
	C280.809937,112.754128 280.134796,116.768463 281.534149,120.689758 
	C283.176849,125.292953 286.776550,127.156998 291.674438,127.146225 
	C321.289917,127.081078 350.921570,126.559868 380.513123,127.405052 
	C391.862823,127.729218 399.341003,125.389763 403.280975,113.995270 
	C405.302856,108.148056 405.932434,108.013939 399.540253,108.011757 
	C364.267731,107.999748 328.995178,108.005997 292.784210,108.008430 
M372.500000,88.031319 
	C386.155548,88.031250 399.811249,88.059845 413.466461,87.992615 
	C415.063873,87.984749 417.498138,88.002510 418.116638,87.065704 
	C421.774017,81.526070 425.009369,75.707832 428.667633,69.507217 
	C426.749817,69.207817 426.103668,69.018913 425.457458,69.018661 
	C389.153717,69.004349 352.849884,68.965981 316.546326,69.043625 
	C310.272217,69.057045 305.925079,73.417793 306.186462,78.847977 
	C306.460022,84.531250 310.528870,88.013588 317.044342,88.021957 
	C335.196198,88.045273 353.348114,88.030884 372.500000,88.031319 
M360.216309,394.062592 
	C336.434753,394.063629 312.653198,394.048126 288.871674,394.076660 
	C282.502380,394.084290 277.494385,398.176361 277.339447,403.346771 
	C277.169250,409.026489 281.970978,413.773834 288.431274,413.804962 
	C309.551453,413.906830 330.672638,413.881653 351.792755,413.776367 
	C353.272369,413.768982 355.423004,413.141479 356.109833,412.066437 
	C359.638855,406.542908 362.791016,400.778564 366.469757,394.415100 
	C363.984985,394.251373 362.554749,394.157135 360.216309,394.062592 
M365.478546,374.789490 
	C367.641785,374.789520 369.812958,374.904846 371.966003,374.756714 
	C374.063019,374.612457 377.240509,374.948761 378.041351,373.775574 
	C381.888519,368.139404 385.091431,362.063507 389.158203,355.048218 
	C385.898865,355.048218 384.276215,355.048157 382.653564,355.048187 
	C360.355499,355.048645 338.057404,355.034546 315.759399,355.074829 
	C313.786407,355.078400 311.748535,355.186340 309.854553,355.681152 
	C305.478699,356.824432 303.163818,359.819092 303.059570,364.366699 
	C302.950806,369.112671 305.376007,372.346558 309.691162,373.837555 
	C311.983337,374.629517 314.592133,374.739044 317.059937,374.750824 
	C332.867889,374.826294 348.676422,374.789124 365.478546,374.789490 
M363.500000,316.046082 
	C355.177124,316.049530 346.853333,315.978668 338.531769,316.084167 
	C333.503204,316.147919 328.823120,320.132843 328.238861,324.546997 
	C327.639496,329.074860 331.075195,333.739685 336.173615,335.151398 
	C337.595886,335.545258 339.107910,335.799164 340.579498,335.802612 
	C359.222687,335.846039 377.866089,335.855652 396.509094,335.785095 
	C397.914520,335.779785 400.024902,335.557434 400.606445,334.658691 
	C404.332123,328.901093 407.722015,322.926117 411.801208,316.046173 
	C395.052643,316.046173 379.776337,316.046173 363.500000,316.046082 
M308.109161,195.643738 
	C309.707397,192.710052 311.305664,189.776382 313.295502,186.123932 
	C288.185242,186.123932 264.230042,186.033813 240.276459,186.191910 
	C234.785614,186.228165 230.277710,190.734451 230.149902,195.358017 
	C230.007965,200.493256 233.397324,204.295502 239.337189,205.458923 
	C240.950623,205.774963 242.642685,205.771988 244.298874,205.774292 
	C259.948242,205.796127 275.626556,205.219955 291.235352,206.016052 
	C299.607269,206.443054 305.209808,204.592453 308.109161,195.643738 
M307.500000,147.005798 
	C294.006866,147.007202 280.513641,146.981659 267.020630,147.020966 
	C259.879883,147.041779 255.965530,150.350723 255.885269,156.277985 
	C255.795151,162.935196 259.235291,166.105606 266.753906,166.121643 
	C283.245422,166.156815 299.748627,165.777527 316.223083,166.310089 
	C322.907257,166.526184 327.192352,164.846069 329.721497,158.517609 
	C331.198212,154.822540 333.427368,151.428162 335.796173,147.005798 
	C325.773163,147.005798 317.136566,147.005798 307.500000,147.005798 
M364.768036,296.077911 
	C382.733490,296.078644 400.698975,296.097260 418.664276,296.049469 
	C420.271088,296.045197 422.749420,296.182892 423.340393,295.282074 
	C426.991180,289.717133 430.216888,283.873352 433.621063,278.058716 
	C432.228973,277.417480 431.932404,277.161621 431.635345,277.161041 
	C408.847778,277.117554 386.059174,276.968353 363.273285,277.153595 
	C357.224915,277.202759 353.785858,281.436066 353.962677,287.234650 
	C354.123108,292.494263 357.776276,295.761292 364.768036,296.077911 
z"/>
<path fill="#FEFEFF" opacity="1.000000" stroke="none" 
	d="
M956.000000,1.000000 
	C962.596375,1.000000 969.192749,1.000000 976.000000,1.000000 
	C976.000000,8.019411 976.000000,15.040923 975.531494,22.532028 
	C969.947449,23.001038 964.828979,22.898043 959.717468,23.040874 
	C956.950562,23.118189 955.899048,22.112806 955.961731,19.316013 
	C956.098633,13.213460 956.001526,7.105658 956.000000,1.000000 
z"/>
<path fill="#F1F1F1" opacity="1.000000" stroke="none" 
	d="
M955.625000,1.000000 
	C956.001526,7.105658 956.098633,13.213460 955.961731,19.316013 
	C955.899048,22.112806 956.950562,23.118189 959.717468,23.040874 
	C964.828979,22.898043 969.947449,23.001038 975.531494,23.000813 
	C976.000000,23.750000 976.000000,24.500000 976.000000,25.625000 
	C970.179504,25.997961 964.357910,25.927065 958.539062,26.024229 
	C955.811523,26.069773 953.993958,25.358473 953.873108,22.267628 
	C953.608032,15.489787 953.297363,8.713731 953.002686,1.468473 
	C953.750000,1.000000 954.500000,1.000000 955.625000,1.000000 
z"/>
<path fill="#218ED1" opacity="1.000000" stroke="none" 
	d="
M454.260681,260.764832 
	C453.774109,259.925995 453.483643,258.830750 452.771851,258.286316 
	C439.982819,248.503281 436.931061,226.541595 446.785095,209.914673 
	C460.020569,187.582123 472.905304,165.040619 485.816254,142.517532 
	C489.588226,135.937347 490.604767,137.360168 483.783020,131.997421 
	C476.718567,126.443825 469.602905,120.949394 462.689819,115.211967 
	C459.701416,112.731766 457.914459,112.311935 455.176514,115.881645 
	C444.645050,129.612274 433.729126,143.047836 422.974609,156.607727 
	C421.851471,158.023865 420.847809,159.534760 421.142609,160.775848 
	C422.577301,164.730255 425.301392,168.755493 425.089081,172.619385 
	C424.870758,176.593124 421.787292,180.409424 419.640320,184.968353 
	C424.484802,187.760132 429.335999,190.559006 434.190308,193.352509 
	C442.772339,198.291199 444.000305,202.829269 439.002380,211.306671 
	C437.312714,214.172668 435.552948,216.997345 433.092041,219.953720 
	C418.230499,218.384872 404.137970,216.210205 389.962250,215.180862 
	C379.038910,214.387665 370.572357,211.732376 364.192139,201.426682 
	C356.210297,188.533875 346.066650,176.979385 336.856201,164.847168 
	C339.229126,160.485077 341.360168,155.967468 344.038544,151.801758 
	C347.113373,147.019379 351.942383,146.074295 357.127441,148.902039 
	C361.946472,151.530182 366.736572,154.229187 371.389160,157.137360 
	C373.836151,158.666885 375.341919,158.230713 376.602814,155.826965 
	C377.220734,154.648972 377.885620,153.493637 378.572083,152.353851 
	C382.961884,145.065262 386.349121,143.890045 394.726318,147.057053 
	C398.020142,141.270844 401.343262,135.401016 404.696442,129.548431 
	C415.448883,110.781395 426.235107,92.033699 436.962158,73.252167 
	C442.267548,63.963173 448.506866,61.015659 458.948151,63.603836 
	C462.944366,64.594406 466.862152,66.192245 470.567810,68.016792 
	C494.901276,79.997765 519.320068,91.822868 543.362976,104.365967 
	C550.735718,108.212311 557.018005,114.148888 563.965088,119.823616 
	C571.962158,136.484085 570.390320,151.598557 560.543396,166.288651 
	C557.459961,170.888580 555.481995,176.229462 552.997986,181.231201 
	C552.188660,182.040909 551.161316,182.723328 550.603088,183.679611 
	C543.298950,196.191299 536.159180,208.800186 528.741028,221.243286 
	C526.769226,224.550705 528.721375,226.063492 530.624084,227.964722 
	C551.125610,248.450287 571.599792,268.963318 592.118286,289.431946 
	C597.971558,295.270966 602.125244,301.811310 602.108643,310.456512 
	C602.083435,323.599823 593.128174,333.764893 580.077881,335.178619 
	C577.436035,335.464813 574.763672,335.581482 572.105225,335.584259 
	C544.788391,335.612732 517.471497,335.593903 490.154663,335.617584 
	C488.168091,335.619293 486.181702,335.849426 483.395325,335.779541 
	C471.148438,335.429016 459.701874,335.226776 448.254364,335.128693 
	C437.223541,335.034180 430.932343,330.450104 427.773254,319.534424 
	C428.845734,314.045929 429.846008,309.007019 431.097717,303.895874 
	C431.534241,303.540863 431.719330,303.258087 432.010071,302.759735 
	C432.115723,302.544159 432.126587,302.064117 432.092590,302.042236 
	C432.058594,302.020386 432.051239,302.100891 432.316406,302.039795 
	C432.757935,301.676605 432.934265,301.374451 433.094177,301.105347 
	C433.077820,301.138367 433.147064,301.163605 433.464233,301.131561 
	C434.592590,300.427917 435.403809,299.756317 436.560425,299.037170 
	C438.608154,298.235596 440.310547,297.481598 442.405396,296.773773 
	C445.527863,296.204742 448.257874,295.589600 451.393433,295.012695 
	C452.871521,294.927155 453.944061,294.803345 455.406189,294.770355 
	C457.521698,294.556000 459.247559,294.250885 461.380676,293.986237 
	C462.864502,293.897186 463.941010,293.767639 465.386841,293.735291 
	C467.168335,293.549530 468.580505,293.266510 470.396790,293.021851 
	C471.871704,292.943542 472.942505,292.826843 474.386292,292.793579 
	C476.173157,292.584656 477.587067,292.292328 479.433594,292.035675 
	C481.583496,291.909698 483.300781,291.748047 485.361420,291.691467 
	C486.804199,291.532379 487.903625,291.268158 489.421143,291.038757 
	C491.222839,290.935791 492.606537,290.798065 494.364197,290.745880 
	C495.835999,290.596405 496.933807,290.361328 498.031647,290.126251 
	C498.075714,289.720215 498.119781,289.314148 498.163849,288.908112 
	C496.806305,288.192352 495.448761,287.476562 493.939392,286.508575 
	C492.951324,285.803345 492.115082,285.350372 491.155121,284.605682 
	C490.355103,283.903717 489.678772,283.493500 488.737793,282.870911 
	C482.485657,278.481628 476.610992,274.129425 470.476288,270.181183 
	C465.225830,266.802002 459.677338,263.885834 454.260681,260.764832 
M395.442413,163.723022 
	C395.147308,162.947662 394.733612,162.195374 394.577606,161.392960 
	C393.903320,157.925369 393.257629,153.463455 389.089325,153.872147 
	C386.846710,154.092041 384.763702,158.070755 383.085236,160.662109 
	C382.556305,161.478699 383.126312,164.049286 383.953217,164.542175 
	C393.188751,170.046783 402.573212,175.301529 412.278931,180.829407 
	C413.422089,178.950226 414.567902,177.509476 415.225159,175.872528 
	C416.019684,173.893692 417.496277,171.108795 416.735901,169.806488 
	C415.064453,166.943878 412.026093,167.206680 408.845245,168.404160 
	C403.110657,170.563049 399.897247,169.363678 395.442413,163.723022 
M381.589966,207.036514 
	C385.048615,203.418457 384.572174,198.978622 380.487671,198.292572 
	C378.941193,198.032806 376.624969,198.603821 375.659485,199.687210 
	C374.684387,200.781372 374.127350,203.836288 374.838409,204.517654 
	C376.367065,205.982452 378.828522,206.473740 381.589966,207.036514 
z"/>
<path fill="#12405C" opacity="1.000000" stroke="none" 
	d="
M427.701019,319.983978 
	C430.932343,330.450104 437.223541,335.034180 448.254364,335.128693 
	C459.701874,335.226776 471.148438,335.429016 482.946960,335.844666 
	C470.271301,351.691071 457.297424,367.323425 444.203583,382.854645 
	C427.561279,402.594879 410.820740,422.252380 394.135101,441.956116 
	C393.937897,442.188995 393.907349,442.562927 393.433380,443.910583 
	C395.771362,443.910583 397.778564,443.910583 399.785767,443.910583 
	C491.593842,443.910614 583.401917,443.909912 675.209961,443.915497 
	C677.208069,443.915619 679.223022,443.836090 681.200928,444.056152 
	C686.093445,444.600647 689.505249,448.208771 689.784119,452.927887 
	C690.072693,457.811615 686.808655,462.027100 681.831665,462.901184 
	C679.881348,463.243713 677.849426,463.199860 675.854675,463.200012 
	C539.725464,463.212219 403.596283,463.211914 267.467102,463.200653 
	C265.638611,463.200500 263.776062,463.242126 261.988190,462.928833 
	C257.014587,462.057251 253.831085,457.979797 254.005783,452.964294 
	C254.168411,448.295563 257.581451,444.661011 262.532928,444.066376 
	C264.343170,443.848999 266.192108,443.916779 268.023376,443.916290 
	C298.015106,443.908508 328.006866,443.910614 357.998596,443.910522 
	C359.764648,443.910492 361.530701,443.910553 363.170502,443.910553 
	C363.341248,442.967194 363.550079,442.562408 363.427795,442.381683 
	C357.498535,433.618774 359.077332,425.142181 364.096069,416.598267 
	C372.449524,402.377411 380.619507,388.048859 388.877991,373.772156 
	C400.723206,353.294983 412.578552,332.823700 425.000214,312.444275 
	C426.280884,315.020386 426.990967,317.502197 427.701019,319.983978 
z"/>
<path fill="#228ED2" opacity="1.000000" stroke="none" 
	d="
M540.774048,32.787117 
	C554.489380,16.016600 575.735535,10.066754 594.927856,17.399414 
	C613.475037,24.485600 625.545837,42.961140 624.902222,63.278362 
	C624.182068,86.014336 605.041809,106.196167 582.645203,107.834938 
	C557.537415,109.672081 536.036133,93.238350 532.004700,69.402916 
	C529.738525,56.005104 532.617737,43.983410 540.774048,32.787117 
z"/>
<path fill="#113F5C" opacity="1.000000" stroke="none" 
	d="
M553.293030,181.467163 
	C555.481995,176.229462 557.459961,170.888580 560.543396,166.288651 
	C570.390320,151.598557 571.962158,136.484085 564.042419,120.139534 
	C577.218506,132.854828 590.510986,145.921097 603.710693,159.080551 
	C605.342224,160.707092 606.479187,162.829773 608.093689,165.066696 
	C610.575562,162.811478 611.934265,161.677094 613.179688,160.429733 
	C625.769043,147.820969 638.193542,135.042084 651.012024,122.671272 
	C654.505920,119.299446 658.845215,116.240837 663.363770,114.609634 
	C673.090820,111.098137 681.832214,118.984375 679.750427,129.129395 
	C679.040955,132.587036 677.297791,136.092697 675.190430,138.962082 
	C658.632996,161.506775 641.876099,183.905060 625.172546,206.342438 
	C619.676880,213.724640 613.912964,215.886536 605.139343,212.941299 
	C600.466614,211.372711 595.954529,209.009644 591.764832,206.376816 
	C578.936584,198.315567 566.299500,189.950195 553.293030,181.467163 
z"/>
<path fill="#103F5C" opacity="1.000000" stroke="none" 
	d="
M336.573242,165.030609 
	C346.066650,176.979385 356.210297,188.533875 364.192139,201.426682 
	C370.572357,211.732376 379.038910,214.387665 389.962250,215.180862 
	C404.137970,216.210205 418.230499,218.384872 432.790161,220.108093 
	C431.723206,223.101913 430.347656,226.124451 428.704559,228.993790 
	C422.826447,239.258926 416.922119,249.510315 410.899261,259.690887 
	C407.200623,265.942841 402.331299,267.318451 396.146088,263.758911 
	C370.008514,248.716949 343.910156,233.606598 317.834595,218.457321 
	C311.821960,214.964127 310.338654,210.060257 313.716980,204.112198 
	C321.120392,191.077393 328.751923,178.172165 336.573242,165.030609 
z"/>
<path fill="#2590D2" opacity="1.000000" stroke="none" 
	d="
M374.278687,496.226196 
	C390.410492,496.176941 406.543091,496.015656 422.673676,496.132507 
	C429.298584,496.180511 433.592468,501.033875 432.748871,507.675903 
	C431.681793,516.077576 430.486298,524.521973 428.407074,532.709534 
	C427.458160,536.446228 424.260529,539.611816 421.604370,543.788696 
	C426.668060,547.751343 424.750519,553.919128 423.715332,559.948730 
	C422.449341,567.322449 421.289917,574.719360 419.801086,582.048706 
	C418.112793,590.360168 412.348175,594.976074 403.936432,595.000305 
	C388.633179,595.044434 373.329681,595.010986 357.539978,594.546631 
	C359.042419,582.332764 360.958435,570.569275 363.035858,558.834351 
	C366.731934,537.955811 370.525757,517.094666 374.278687,496.226196 
M399.608124,535.686890 
	C409.471130,536.302185 409.513458,536.257690 411.044342,526.290588 
	C411.293732,524.666992 411.705566,523.069092 411.989929,521.450073 
	C413.800232,511.141388 413.653412,510.996979 401.975464,512.022766 
	C398.998901,511.970642 396.006012,511.720459 393.053741,511.963409 
	C391.864594,512.061279 389.943939,513.064636 389.753967,513.954407 
	C388.285645,520.831482 387.159973,527.781677 385.823853,535.295654 
	C390.616425,535.295654 394.681976,535.295654 399.608124,535.686890 
M394.030609,551.379639 
	C391.371918,551.412781 388.670288,551.177185 386.072540,551.592041 
	C384.765167,551.800842 382.793060,553.016968 382.577972,554.073914 
	C380.929810,562.173401 379.639984,570.345825 378.167633,578.909668 
	C382.739655,578.909668 386.837677,578.909668 391.832733,579.116943 
	C392.821991,579.135803 393.811249,579.170166 394.800507,579.171021 
	C401.561127,579.176697 401.957733,578.793518 402.966736,572.218323 
	C403.540497,568.479370 404.380035,564.780396 404.922791,561.037720 
	C406.414429,550.752502 405.565521,549.990784 394.030609,551.379639 
z"/>
<path fill="#2590D2" opacity="1.000000" stroke="none" 
	d="
M277.045258,497.071533 
	C287.830963,496.719696 298.615936,496.340729 309.402893,496.032837 
	C312.563751,495.942596 315.731567,496.006042 318.894165,496.082947 
	C326.372589,496.264801 330.887024,501.101196 329.648712,508.455902 
	C325.476440,533.236328 321.108215,557.984863 316.619873,582.710205 
	C315.373627,589.575439 309.720825,594.762085 303.200775,594.907959 
	C290.384308,595.194580 277.557587,595.050171 264.735382,595.003296 
	C263.443298,594.998596 262.153259,594.440674 260.328339,593.728027 
	C255.756393,589.850830 255.447739,585.408081 256.300110,580.560974 
	C259.602631,561.780518 262.644531,542.951599 266.188324,524.217285 
	C268.018616,514.541382 267.207733,503.618652 277.045258,497.071533 
M289.750854,579.054382 
	C298.478577,579.346619 298.663879,579.294495 299.760284,573.141052 
	C302.837189,555.872192 305.897644,538.600159 308.863586,521.312012 
	C310.577820,511.320007 310.257965,511.071198 298.975006,512.027710 
	C296.978302,511.974518 294.934479,512.176758 292.994080,511.818542 
	C287.887054,510.875854 286.547089,513.470032 285.834930,517.991638 
	C283.867706,530.482178 281.411560,542.895020 279.208649,555.349182 
	C277.834900,563.116028 276.569885,570.902039 275.239471,578.777649 
	C280.283020,578.777649 284.573029,578.777649 289.750854,579.054382 
z"/>
<path fill="#2590D2" opacity="1.000000" stroke="none" 
	d="
M722.887939,512.176331 
	C722.062012,512.086243 721.237793,511.939331 720.409912,511.914612 
	C710.076050,511.605774 710.184753,511.625580 708.747681,521.905151 
	C708.235107,525.572021 709.294067,527.896667 712.568237,529.649109 
	C720.055908,533.656860 727.434570,537.869019 734.846191,542.018372 
	C742.613831,546.366943 745.382874,551.747375 744.034668,560.616638 
	C742.884216,568.185303 741.592957,575.742981 740.025024,583.234558 
	C738.680603,589.658386 733.017517,594.775940 726.699951,594.911255 
	C713.879211,595.186035 701.048889,595.037231 688.222778,594.998047 
	C687.089966,594.994568 685.958679,594.513733 684.289124,593.857544 
	C682.271118,590.298828 679.475708,587.086914 679.594116,583.986389 
	C679.815002,578.202698 681.729675,572.483704 682.939453,566.737793 
	C688.351318,566.775757 693.763123,566.813721 699.647705,567.288818 
	C700.305420,568.205994 700.490356,568.685974 700.675232,569.165955 
	C700.470825,570.189331 700.266418,571.212769 699.806213,572.822144 
	C699.573853,573.993530 699.597229,574.579041 699.620605,575.164490 
	C698.778687,577.945984 699.966492,579.191650 702.714172,579.174744 
	C705.476257,579.157776 708.237976,579.080017 711.893616,579.056030 
	C715.816345,578.698669 721.132874,579.001526 721.489685,577.814148 
	C723.312073,571.749023 724.022644,565.316223 724.663086,558.965759 
	C724.759644,558.008301 722.586304,556.550659 721.211670,555.762512 
	C714.728516,552.045349 708.191101,548.419189 701.611145,544.875488 
	C690.479919,538.880676 688.003052,534.321289 690.159607,521.989441 
	C691.760986,512.831665 691.659119,502.805237 701.018555,496.961121 
	C710.641052,496.645050 720.262390,496.280151 729.886658,496.035065 
	C734.212769,495.924896 738.547241,495.972198 742.873779,496.093658 
	C749.901611,496.290955 754.204956,501.379639 753.205261,508.366974 
	C752.616272,512.483643 751.609192,516.543213 751.089172,520.666138 
	C750.748657,523.365540 749.607910,524.385132 746.892334,524.282776 
	C742.237854,524.107361 737.573181,524.202698 732.486206,523.682495 
	C734.367188,511.507629 734.009766,511.078796 722.887939,512.176331 
z"/>
<path fill="#2690D2" opacity="1.000000" stroke="none" 
	d="
M538.171753,496.142426 
	C543.955994,496.142426 549.740295,496.142426 556.527039,496.142426 
	C551.629456,524.028137 546.845947,551.264160 541.941833,579.187317 
	C553.731567,579.187317 564.975159,579.187317 577.164734,579.187317 
	C576.223145,584.256775 575.520691,588.612610 574.525024,592.900330 
	C574.332764,593.728088 572.987244,594.891113 572.182617,594.884155 
	C557.399841,594.755676 542.618530,594.472534 527.301147,593.823730 
	C522.916931,589.805054 521.955688,585.565979 522.968262,580.325195 
	C525.579407,566.810425 527.726807,553.206909 530.162048,539.657227 
	C532.770935,525.141357 535.496887,510.646454 538.171753,496.142426 
z"/>
<path fill="#2590D2" opacity="1.000000" stroke="none" 
	d="
M167.498917,579.477051 
	C173.018982,579.361023 178.539032,579.245056 184.976776,579.139587 
	C186.893509,579.155701 187.928619,578.991394 188.885696,579.194641 
	C194.646027,580.418091 196.074615,577.323608 196.919861,572.295776 
	C201.188370,546.905029 205.781525,521.568970 210.260803,496.213684 
	C216.198746,496.213684 222.136688,496.213684 228.682480,496.213684 
	C227.252136,504.681152 225.952591,512.640991 224.556931,520.583984 
	C221.049194,540.547607 217.507339,560.505188 213.960373,580.461914 
	C212.202606,590.351746 206.778748,594.987854 196.928894,595.010498 
	C186.623489,595.034180 176.317963,595.010559 165.522842,594.571899 
	C165.006104,593.083252 164.979019,592.030212 165.214233,590.702759 
	C166.059143,586.928162 166.641724,583.427979 167.338684,579.842957 
	C167.453049,579.758118 167.498917,579.477051 167.498917,579.477051 
z"/>
<path fill="#7EC2EC" opacity="1.000000" stroke="none" 
	d="
M293.253418,108.007210 
	C328.995178,108.005997 364.267731,107.999748 399.540253,108.011757 
	C405.932434,108.013939 405.302856,108.148056 403.280975,113.995270 
	C399.341003,125.389763 391.862823,127.729218 380.513123,127.405052 
	C350.921570,126.559868 321.289917,127.081078 291.674438,127.146225 
	C286.776550,127.156998 283.176849,125.292953 281.534149,120.689758 
	C280.134796,116.768463 280.809937,112.754128 284.422302,110.451294 
	C286.773285,108.952591 289.967682,108.776855 293.253418,108.007210 
z"/>
<path fill="#7EC2EC" opacity="1.000000" stroke="none" 
	d="
M372.000000,88.031349 
	C353.348114,88.030884 335.196198,88.045273 317.044342,88.021957 
	C310.528870,88.013588 306.460022,84.531250 306.186462,78.847977 
	C305.925079,73.417793 310.272217,69.057045 316.546326,69.043625 
	C352.849884,68.965981 389.153717,69.004349 425.457458,69.018661 
	C426.103668,69.018913 426.749817,69.207817 428.667633,69.507217 
	C425.009369,75.707832 421.774017,81.526070 418.116638,87.065704 
	C417.498138,88.002510 415.063873,87.984749 413.466461,87.992615 
	C399.811249,88.059845 386.155548,88.031250 372.000000,88.031349 
z"/>
<path fill="#2690D2" opacity="1.000000" stroke="none" 
	d="
M477.274597,496.227722 
	C483.212769,496.227722 489.150940,496.227722 495.774109,496.227722 
	C494.404724,504.221069 493.155823,511.700653 491.838104,519.168091 
	C487.649200,542.906921 483.323303,566.622437 479.340698,590.395691 
	C478.684937,594.310242 477.122009,595.309570 473.520233,595.078979 
	C469.378601,594.813843 465.207611,595.007019 460.567535,594.538635 
	C465.815338,561.459961 471.544952,528.843872 477.274597,496.227722 
z"/>
<path fill="#2690D2" opacity="1.000000" stroke="none" 
	d="
M634.171875,496.144836 
	C639.942505,496.144836 645.713135,496.144836 652.403259,496.144836 
	C651.046875,504.345093 649.857178,511.959259 648.519409,519.547302 
	C644.340942,543.247620 640.043945,566.927246 635.967102,590.644897 
	C635.413269,593.867371 634.359131,595.296143 630.921997,595.083374 
	C626.621582,594.817078 622.291992,595.023499 617.475220,594.561768 
	C617.026245,592.937439 616.946716,591.754150 617.147339,590.620544 
	C620.036438,574.290527 622.943176,557.963440 625.886841,541.643188 
	C628.623047,526.472473 631.408264,511.310608 634.171875,496.144836 
z"/>
<path fill="#80C3EC" opacity="1.000000" stroke="none" 
	d="
M360.670410,394.062744 
	C362.554749,394.157135 363.984985,394.251373 366.469757,394.415100 
	C362.791016,400.778564 359.638855,406.542908 356.109833,412.066437 
	C355.423004,413.141479 353.272369,413.768982 351.792755,413.776367 
	C330.672638,413.881653 309.551453,413.906830 288.431274,413.804962 
	C281.970978,413.773834 277.169250,409.026489 277.339447,403.346771 
	C277.494385,398.176361 282.502380,394.084290 288.871674,394.076660 
	C312.653198,394.048126 336.434753,394.063629 360.670410,394.062744 
z"/>
<path fill="#7EC2EC" opacity="1.000000" stroke="none" 
	d="
M364.981628,374.789246 
	C348.676422,374.789124 332.867889,374.826294 317.059937,374.750824 
	C314.592133,374.739044 311.983337,374.629517 309.691162,373.837555 
	C305.376007,372.346558 302.950806,369.112671 303.059570,364.366699 
	C303.163818,359.819092 305.478699,356.824432 309.854553,355.681152 
	C311.748535,355.186340 313.786407,355.078400 315.759399,355.074829 
	C338.057404,355.034546 360.355499,355.048645 382.653564,355.048187 
	C384.276215,355.048157 385.898865,355.048218 389.158203,355.048218 
	C385.091431,362.063507 381.888519,368.139404 378.041351,373.775574 
	C377.240509,374.948761 374.063019,374.612457 371.966003,374.756714 
	C369.812958,374.904846 367.641785,374.789520 364.981628,374.789246 
z"/>
<path fill="#7EC2EC" opacity="1.000000" stroke="none" 
	d="
M364.000000,316.046143 
	C379.776337,316.046173 395.052643,316.046173 411.801208,316.046173 
	C407.722015,322.926117 404.332123,328.901093 400.606445,334.658691 
	C400.024902,335.557434 397.914520,335.779785 396.509094,335.785095 
	C377.866089,335.855652 359.222687,335.846039 340.579498,335.802612 
	C339.107910,335.799164 337.595886,335.545258 336.173615,335.151398 
	C331.075195,333.739685 327.639496,329.074860 328.238861,324.546997 
	C328.823120,320.132843 333.503204,316.147919 338.531769,316.084167 
	C346.853333,315.978668 355.177124,316.049530 364.000000,316.046143 
z"/>
<path fill="#7FC2EC" opacity="1.000000" stroke="none" 
	d="
M307.946472,195.975388 
	C305.209808,204.592453 299.607269,206.443054 291.235352,206.016052 
	C275.626556,205.219955 259.948242,205.796127 244.298874,205.774292 
	C242.642685,205.771988 240.950623,205.774963 239.337189,205.458923 
	C233.397324,204.295502 230.007965,200.493256 230.149902,195.358017 
	C230.277710,190.734451 234.785614,186.228165 240.276459,186.191910 
	C264.230042,186.033813 288.185242,186.123932 313.295502,186.123932 
	C311.305664,189.776382 309.707397,192.710052 307.946472,195.975388 
z"/>
<path fill="#7EC2EC" opacity="1.000000" stroke="none" 
	d="
M308.000000,147.005798 
	C317.136566,147.005798 325.773163,147.005798 335.796173,147.005798 
	C333.427368,151.428162 331.198212,154.822540 329.721497,158.517609 
	C327.192352,164.846069 322.907257,166.526184 316.223083,166.310089 
	C299.748627,165.777527 283.245422,166.156815 266.753906,166.121643 
	C259.235291,166.105606 255.795151,162.935196 255.885269,156.277985 
	C255.965530,150.350723 259.879883,147.041779 267.020630,147.020966 
	C280.513641,146.981659 294.006866,147.007202 308.000000,147.005798 
z"/>
<path fill="#7EC2EC" opacity="1.000000" stroke="none" 
	d="
M364.308167,296.076599 
	C357.776276,295.761292 354.123108,292.494263 353.962677,287.234650 
	C353.785858,281.436066 357.224915,277.202759 363.273285,277.153595 
	C386.059174,276.968353 408.847778,277.117554 431.635345,277.161041 
	C431.932404,277.161621 432.228973,277.417480 433.621063,278.058716 
	C430.216888,283.873352 426.991180,289.717133 423.340393,295.282074 
	C422.749420,296.182892 420.271088,296.045197 418.664276,296.049469 
	C400.698975,296.097260 382.733490,296.078644 364.308167,296.076599 
z"/>
<path fill="#12405C" opacity="1.000000" stroke="none" 
	d="
M442.012939,296.727631 
	C440.310547,297.481598 438.608154,298.235596 436.165680,299.009521 
	C434.643616,299.046173 433.861664,299.062897 432.976654,298.967224 
	C432.873627,298.854828 432.670105,298.627838 432.670105,298.627838 
	C439.722260,286.208313 446.774445,273.788788 454.043640,261.067047 
	C459.677338,263.885834 465.225830,266.802002 470.476288,270.181183 
	C476.610992,274.129425 482.485657,278.481628 488.792969,283.200867 
	C489.834778,284.127899 490.556793,284.512634 491.278809,284.897400 
	C492.115082,285.350372 492.951324,285.803345 493.910339,286.905518 
	C494.018799,288.589905 494.004486,289.625092 493.990173,290.660309 
	C492.606537,290.798065 491.222839,290.935791 489.212158,290.779968 
	C487.396118,290.853088 486.207092,291.219727 485.018097,291.586365 
	C483.300781,291.748047 481.583496,291.909698 479.202454,291.767242 
	C477.030243,291.878815 475.521790,292.294495 474.013336,292.710144 
	C472.942505,292.826843 471.871704,292.943542 470.166168,292.757141 
	C468.026825,292.848755 466.522186,293.243408 465.017548,293.638062 
	C463.941010,293.767639 462.864502,293.897186 461.130737,293.721130 
	C458.654510,293.836853 456.835541,294.258209 455.016571,294.679565 
	C453.944061,294.803345 452.871521,294.927155 451.138733,294.737671 
	C447.656616,295.192139 444.834778,295.959869 442.012939,296.727631 
z"/>
<path fill="#BFD0DB" opacity="1.000000" stroke="none" 
	d="
M633.709045,496.086121 
	C631.408264,511.310608 628.623047,526.472473 625.886841,541.643188 
	C622.943176,557.963440 620.036438,574.290527 617.147339,590.620544 
	C616.946716,591.754150 617.026245,592.937439 617.011108,594.527466 
	C613.598999,594.957336 610.151245,594.957336 605.958496,594.957336 
	C607.211609,587.919312 608.367798,581.508057 609.492981,575.091431 
	C613.684509,551.188354 617.935608,527.295471 622.008911,503.372253 
	C623.255737,496.049316 623.027588,496.010468 633.709045,496.086121 
z"/>
<path fill="#BFD0DB" opacity="1.000000" stroke="none" 
	d="
M537.708374,496.082703 
	C535.496887,510.646454 532.770935,525.141357 530.162048,539.657227 
	C527.726807,553.206909 525.579407,566.810425 522.968262,580.325195 
	C521.955688,585.565979 522.916931,589.805054 526.890930,593.752869 
	C519.069763,597.510193 510.571564,591.570435 512.155762,582.541931 
	C516.898499,555.511963 521.948853,528.535217 526.546936,501.481232 
	C527.307373,497.007141 528.982361,495.408630 533.257324,495.995575 
	C534.563171,496.174866 535.914551,496.023102 537.708374,496.082703 
z"/>
<path fill="#BFD0DB" opacity="1.000000" stroke="none" 
	d="
M373.809509,496.143585 
	C370.525757,517.094666 366.731934,537.955811 363.035858,558.834351 
	C360.958435,570.569275 359.042419,582.332764 357.079987,594.499634 
	C353.983215,594.915833 350.860138,594.915833 346.593750,594.915833 
	C347.465302,589.088745 348.144135,583.791565 349.062866,578.536316 
	C353.529541,552.986633 358.205963,527.472290 362.441528,501.884766 
	C363.254181,496.975372 365.188873,495.259247 369.854919,495.998383 
	C370.991486,496.178436 372.177185,496.048431 373.809509,496.143585 
z"/>
<path fill="#BFD0DB" opacity="1.000000" stroke="none" 
	d="
M276.784271,496.765381 
	C267.207733,503.618652 268.018616,514.541382 266.188324,524.217285 
	C262.644531,542.951599 259.602631,561.780518 256.300110,580.560974 
	C255.447739,585.408081 255.756393,589.850830 259.920044,593.646118 
	C256.081879,595.894897 252.389877,595.470581 249.079193,592.561646 
	C245.841217,589.716614 244.709961,586.323303 245.508224,581.885315 
	C249.810318,557.968323 253.966995,534.024353 258.023285,510.064209 
	C259.610596,500.688263 266.942322,495.122101 276.784271,496.765381 
z"/>
<path fill="#BFD0DB" opacity="1.000000" stroke="none" 
	d="
M476.805298,496.148071 
	C471.544952,528.843872 465.815338,561.459961 460.110168,594.485352 
	C457.010315,594.894531 453.885986,594.894531 449.727875,594.894531 
	C450.377319,590.268188 450.839691,586.107239 451.559082,581.991211 
	C456.024933,556.440308 460.655029,530.917664 464.996948,505.345947 
	C466.587891,495.976044 466.297028,495.926666 476.805298,496.148071 
z"/>
<path fill="#BDD0DB" opacity="1.000000" stroke="none" 
	d="
M209.792252,496.138672 
	C205.781525,521.568970 201.188370,546.905029 196.919861,572.295776 
	C196.074615,577.323608 194.646027,580.418091 188.885696,579.194641 
	C187.928619,578.991394 186.893509,579.155701 185.438675,579.067261 
	C189.513611,553.295227 194.184402,527.629395 198.451309,501.896515 
	C199.259232,497.024109 201.148514,495.237091 205.840561,495.999908 
	C206.975082,496.184326 208.161270,496.050873 209.792252,496.138672 
z"/>
<path fill="#BDD0DB" opacity="1.000000" stroke="none" 
	d="
M700.742004,496.674713 
	C691.659119,502.805237 691.760986,512.831665 690.159607,521.989441 
	C688.003052,534.321289 690.479919,538.880676 701.611145,544.875488 
	C708.191101,548.419189 714.728516,552.045349 721.211670,555.762512 
	C722.586304,556.550659 724.759644,558.008301 724.663086,558.965759 
	C724.022644,565.316223 723.312073,571.749023 721.489685,577.814148 
	C721.132874,579.001526 715.816345,578.698669 712.338562,578.960571 
	C712.746765,573.951355 713.293579,568.982727 714.556519,564.203308 
	C715.615479,560.196106 714.220764,557.799927 710.960022,555.968262 
	C705.314758,552.797119 699.699890,549.568787 693.998291,546.501953 
	C678.675110,538.259766 677.253357,535.458191 680.171997,518.407166 
	C680.674011,515.474304 681.338806,512.569580 681.903259,509.647064 
	C683.844238,499.597656 690.012634,495.187012 700.742004,496.674713 
z"/>
<path fill="#BED2DF" opacity="1.000000" stroke="none" 
	d="
M682.624573,566.505371 
	C681.729675,572.483704 679.815002,578.202698 679.594116,583.986389 
	C679.475708,587.086914 682.271118,590.298828 683.878479,593.789185 
	C674.520874,597.618164 667.765259,591.081970 669.010986,583.328491 
	C669.771973,578.592590 670.234009,573.787781 671.372192,569.146851 
	C671.680176,567.890930 673.847595,566.567627 675.363525,566.255127 
	C677.583435,565.797668 679.985352,566.223511 682.624573,566.505371 
z"/>
<path fill="#BFD0DB" opacity="1.000000" stroke="none" 
	d="
M167.020859,579.340942 
	C167.498917,579.477051 167.453049,579.758118 166.976562,580.017700 
	C165.984024,583.843994 165.467972,587.410583 164.951935,590.977234 
	C164.979019,592.030212 165.006104,593.083252 165.061310,594.530334 
	C161.634689,594.924438 158.179962,594.924438 154.470337,594.924438 
	C154.748764,592.315552 154.844864,590.184998 155.220718,588.104980 
	C156.907822,578.768311 156.936523,578.773499 167.020859,579.340942 
z"/>
<path fill="#BBCFDB" opacity="1.000000" stroke="none" 
	d="
M722.906250,512.593567 
	C734.009766,511.078796 734.367188,511.507629 732.022461,523.599182 
	C728.895996,524.017578 725.806702,524.017578 721.923218,524.017578 
	C722.290710,519.977478 722.607605,516.494141 722.906250,512.593567 
z"/>
<path fill="#10405E" opacity="1.000000" stroke="none" 
	d="
M427.773254,319.534424 
	C426.990967,317.502197 426.280884,315.020386 425.286865,312.269836 
	C425.110229,311.411896 425.217560,310.822754 425.870483,309.954773 
	C426.608276,309.111725 426.800476,308.547455 426.992737,307.983185 
	C427.593292,306.834991 428.193848,305.686798 429.271057,304.267639 
	C430.113861,303.987152 430.480072,303.977600 430.846252,303.968079 
	C429.846008,309.007019 428.845734,314.045929 427.773254,319.534424 
z"/>
<path fill="#12405C" opacity="1.000000" stroke="none" 
	d="
M431.097717,303.895874 
	C430.480072,303.977600 430.113861,303.987152 429.471741,303.997864 
	C430.173035,302.331512 431.150238,300.663971 432.398773,298.812134 
	C432.670105,298.627838 432.873627,298.854828 432.955139,299.313873 
	C433.073486,300.236481 433.110260,300.700043 433.147064,301.163605 
	C433.147064,301.163605 433.077820,301.138367 432.847473,301.193634 
	C432.428497,301.532898 432.239868,301.816895 432.051239,302.100891 
	C432.051239,302.100891 432.058594,302.020386 431.908203,302.087646 
	C431.670013,302.240906 431.492676,302.375153 431.508850,302.405212 
	C431.617767,302.607605 431.767761,302.787872 431.904449,302.975311 
	C431.719330,303.258087 431.534241,303.540863 431.097717,303.895874 
z"/>
<path fill="#BED2DF" opacity="1.000000" stroke="none" 
	d="
M700.903320,569.049255 
	C700.490356,568.685974 700.305420,568.205994 700.121338,567.336365 
	C700.458557,567.608643 700.794922,568.270630 700.903320,569.049255 
z"/>
<path fill="#BED2DF" opacity="1.000000" stroke="none" 
	d="
M699.850037,575.069580 
	C699.597229,574.579041 699.573853,573.993530 699.794434,573.215759 
	C700.052063,573.673889 700.065796,574.324280 699.850037,575.069580 
z"/>
<path fill="#12405C" opacity="1.000000" stroke="none" 
	d="
M426.688416,308.076538 
	C426.800476,308.547455 426.608276,309.111725 426.147156,309.823059 
	C426.046844,309.370056 426.215485,308.769958 426.688416,308.076538 
z"/>
<path fill="#E9F3FA" opacity="1.000000" stroke="none" 
	d="
M395.628967,164.064880 
	C399.897247,169.363678 403.110657,170.563049 408.845245,168.404160 
	C412.026093,167.206680 415.064453,166.943878 416.735901,169.806488 
	C417.496277,171.108795 416.019684,173.893692 415.225159,175.872528 
	C414.567902,177.509476 413.422089,178.950226 412.278931,180.829407 
	C402.573212,175.301529 393.188751,170.046783 383.953217,164.542175 
	C383.126312,164.049286 382.556305,161.478699 383.085236,160.662109 
	C384.763702,158.070755 386.846710,154.092041 389.089325,153.872147 
	C393.257629,153.463455 393.903320,157.925369 394.577606,161.392960 
	C394.733612,162.195374 395.147308,162.947662 395.628967,164.064880 
z"/>
<path fill="#10405E" opacity="1.000000" stroke="none" 
	d="
M381.249054,207.200012 
	C378.828522,206.473740 376.367065,205.982452 374.838409,204.517654 
	C374.127350,203.836288 374.684387,200.781372 375.659485,199.687210 
	C376.624969,198.603821 378.941193,198.032806 380.487671,198.292572 
	C384.572174,198.978622 385.048615,203.418457 381.249054,207.200012 
z"/>
<path fill="#10405E" opacity="1.000000" stroke="none" 
	d="
M442.405396,296.773773 
	C444.834778,295.959869 447.656616,295.192139 450.733154,294.699402 
	C448.257874,295.589600 445.527863,296.204742 442.405396,296.773773 
z"/>
<path fill="#10405E" opacity="1.000000" stroke="none" 
	d="
M494.364166,290.745880 
	C494.004486,289.625092 494.018799,288.589905 494.062134,287.157745 
	C495.448761,287.476562 496.806305,288.192352 498.163849,288.908112 
	C498.119781,289.314148 498.075714,289.720215 498.031647,290.126251 
	C496.933807,290.361328 495.835999,290.596405 494.364166,290.745880 
z"/>
<path fill="#10405E" opacity="1.000000" stroke="none" 
	d="
M455.406189,294.770355 
	C456.835541,294.258209 458.654510,293.836853 460.723450,293.680603 
	C459.247559,294.250885 457.521698,294.556000 455.406189,294.770355 
z"/>
<path fill="#10405E" opacity="1.000000" stroke="none" 
	d="
M465.386841,293.735291 
	C466.522186,293.243408 468.026825,292.848755 469.762085,292.718811 
	C468.580505,293.266510 467.168335,293.549530 465.386841,293.735291 
z"/>
<path fill="#10405E" opacity="1.000000" stroke="none" 
	d="
M474.386292,292.793579 
	C475.521790,292.294495 477.030243,291.878815 478.769836,291.731567 
	C477.587067,292.292328 476.173157,292.584656 474.386292,292.793579 
z"/>
<path fill="#10405E" opacity="1.000000" stroke="none" 
	d="
M485.361420,291.691467 
	C486.207092,291.219727 487.396118,290.853088 488.794098,290.745178 
	C487.903625,291.268158 486.804199,291.532379 485.361420,291.691467 
z"/>
<path fill="#10405E" opacity="1.000000" stroke="none" 
	d="
M433.464233,301.131561 
	C433.110260,300.700043 433.073486,300.236481 433.058167,299.426270 
	C433.861664,299.062897 434.643616,299.046173 435.820312,299.057098 
	C435.403809,299.756317 434.592590,300.427917 433.464233,301.131561 
z"/>
<path fill="#10405E" opacity="1.000000" stroke="none" 
	d="
M491.155121,284.605682 
	C490.556793,284.512634 489.834778,284.127899 489.057617,283.413208 
	C489.678772,283.493500 490.355103,283.903717 491.155121,284.605682 
z"/>
<path fill="#10405E" opacity="1.000000" stroke="none" 
	d="
M432.316406,302.039795 
	C432.239868,301.816895 432.428497,301.532898 432.863831,301.160614 
	C432.934265,301.374451 432.757935,301.676605 432.316406,302.039795 
z"/>
<path fill="#10405E" opacity="1.000000" stroke="none" 
	d="
M432.010071,302.759735 
	C431.767761,302.787872 431.617767,302.607605 431.508850,302.405212 
	C431.492676,302.375153 431.670013,302.240906 431.942200,302.109497 
	C432.126587,302.064117 432.115723,302.544159 432.010071,302.759735 
z"/>
<path fill="#F8FBFD" opacity="1.000000" stroke="none" 
	d="
M390.935669,578.909668 
	C386.837677,578.909668 382.739655,578.909668 378.167633,578.909668 
	C379.639984,570.345825 380.929810,562.173401 382.577972,554.073914 
	C382.793060,553.016968 384.765167,551.800842 386.072540,551.592041 
	C388.670288,551.177185 391.371918,551.412781 394.540039,551.805359 
	C395.315033,552.992615 395.924652,553.819824 395.793732,554.505676 
	C394.238312,562.652588 392.572479,570.778320 390.935669,578.909668 
z"/>
<path fill="#F8FBFD" opacity="1.000000" stroke="none" 
	d="
M398.747498,535.295654 
	C394.681976,535.295654 390.616425,535.295654 385.823853,535.295654 
	C387.159973,527.781677 388.285645,520.831482 389.753967,513.954407 
	C389.943939,513.064636 391.864594,512.061279 393.053741,511.963409 
	C396.006012,511.720459 398.998901,511.970642 402.437683,512.529541 
	C401.515747,520.456116 400.131622,527.875854 398.747498,535.295654 
z"/>
<path fill="#BBCFDB" opacity="1.000000" stroke="none" 
	d="
M391.384216,579.013306 
	C392.572479,570.778320 394.238312,562.652588 395.793732,554.505676 
	C395.924652,553.819824 395.315033,552.992615 394.924500,551.911621 
	C405.565521,549.990784 406.414429,550.752502 404.922791,561.037720 
	C404.380035,564.780396 403.540497,568.479370 402.966736,572.218323 
	C401.957733,578.793518 401.561127,579.176697 394.800507,579.171021 
	C393.811249,579.170166 392.821991,579.135803 391.384216,579.013306 
z"/>
<path fill="#BBCFDB" opacity="1.000000" stroke="none" 
	d="
M399.177795,535.491272 
	C400.131622,527.875854 401.515747,520.456116 402.883972,512.629272 
	C413.653412,510.996979 413.800232,511.141388 411.989929,521.450073 
	C411.705566,523.069092 411.293732,524.666992 411.044342,526.290588 
	C409.513458,536.257690 409.471130,536.302185 399.177795,535.491272 
z"/>
<path fill="#F8FBFD" opacity="1.000000" stroke="none" 
	d="
M288.863037,578.777649 
	C284.573029,578.777649 280.283020,578.777649 275.239471,578.777649 
	C276.569885,570.902039 277.834900,563.116028 279.208649,555.349182 
	C281.411560,542.895020 283.867706,530.482178 285.834930,517.991638 
	C286.547089,513.470032 287.887054,510.875854 292.994080,511.818542 
	C294.934479,512.176758 296.978302,511.974518 299.432800,512.529419 
	C298.389038,521.788818 296.858673,530.541626 295.392731,539.305298 
	C293.192474,552.458740 291.037354,565.619812 288.863037,578.777649 
z"/>
<path fill="#BFD0DB" opacity="1.000000" stroke="none" 
	d="
M289.306946,578.916016 
	C291.037354,565.619812 293.192474,552.458740 295.392731,539.305298 
	C296.858673,530.541626 298.389038,521.788818 299.879089,512.630859 
	C310.257965,511.071198 310.577820,511.320007 308.863586,521.312012 
	C305.897644,538.600159 302.837189,555.872192 299.760284,573.141052 
	C298.663879,579.294495 298.478577,579.346619 289.306946,578.916016 
z"/>
<path fill="#BBCFDB" opacity="1.000000" stroke="none" 
	d="
M165.214233,590.702759 
	C165.467972,587.410583 165.984024,583.843994 166.862183,580.102539 
	C166.641724,583.427979 166.059143,586.928162 165.214233,590.702759 
z"/>
</svg>