<?xml version="1.0" encoding="UTF-8"?>
<svg xmlns="http://www.w3.org/2000/svg" xmlns:xlink="http://www.w3.org/1999/xlink" width="35px" height="35px" viewBox="0 0 35 35" version="1.1">
<g id="surface1">
<path style=" stroke:none;fill-rule:evenodd;fill:rgb(0%,0%,0%);fill-opacity:1;" d="M 23.292969 2.53125 C 23.675781 3.007812 23.855469 3.691406 24.058594 4.347656 C 24.078125 5.289062 23.96875 6.355469 24.25 7.03125 C 24.667969 7.164062 25.332031 6.964844 25.878906 6.933594 L 29.609375 6.933594 C 30.453125 6.785156 31.667969 6.773438 32.386719 7.03125 C 32.648438 7.3125 33.046875 7.457031 33.152344 7.890625 C 33.449219 8.105469 33.425781 8.636719 33.628906 8.945312 C 33.75 9.878906 34.027344 10.652344 34.203125 11.527344 C 34.277344 13.785156 34.4375 15.953125 34.683594 18.039062 C 34.632812 18.597656 35.117188 18.625 34.96875 19.28125 C 34.785156 19.554688 34.515625 19.753906 34.203125 19.855469 C 34.191406 20.066406 33.960938 20.0625 33.726562 20.046875 C 33.632812 20.144531 33.535156 20.242188 33.4375 20.335938 C 33.191406 21.683594 33.601562 23.160156 33.535156 24.640625 C 33.566406 26.105469 33.449219 27.726562 33.628906 29.042969 C 33.539062 29.972656 33.378906 30.835938 33.25 31.726562 C 32.714844 32.179688 31.777344 32.230469 30.949219 32.394531 C 23.980469 32.472656 17.355469 32.203125 10.5625 32.109375 C 9.335938 32.25 8.121094 32.476562 6.921875 32.777344 C 6.441406 32.757812 5.960938 32.789062 5.488281 32.875 C 4.363281 32.625 2.617188 33 1.660156 32.585938 C 1.226562 32.074219 1.457031 31.210938 1.5625 30.484375 C 1.667969 27.816406 1.214844 25.046875 1.660156 22.632812 C 1.628906 22.28125 1.332031 22.195312 1.082031 22.058594 C 0.804688 21.988281 0.671875 21.769531 0.511719 21.582031 C 0.34375 20.0625 0.59375 18.699219 0.222656 17.371094 L 0.222656 15.167969 C -0.144531 13.472656 0.0273438 11.378906 0.128906 9.425781 C 0.515625 8.804688 1.039062 8.28125 1.660156 7.894531 C 2.285156 7.65625 3.085938 7.597656 3.765625 7.417969 C 5.46875 7.285156 7.152344 7.648438 8.648438 7.417969 C 8.765625 6.980469 8 7.425781 7.976562 7.128906 C 7.675781 7.140625 7.648438 6.882812 7.59375 6.652344 C 7.636719 5.894531 8.601562 5.714844 9.222656 6.078125 C 9.183594 5.46875 9.214844 4.859375 9.316406 4.257812 C 9.773438 3.4375 10.589844 2.976562 11.710938 2.820312 C 11.878906 2.671875 12.21875 2.695312 12.476562 2.632812 C 12.734375 2.570312 13.234375 2.753906 13.335938 2.535156 C 13.769531 2.359375 14.519531 2.503906 14.964844 2.34375 C 16.390625 2.398438 17.644531 2.277344 18.984375 2.25 C 20.332031 2.0625 22.304688 2.039062 23.292969 2.53125 Z M 13.816406 4.347656 C 13.101562 4.75 11.738281 4.503906 11.042969 4.925781 C 10.84375 5.238281 10.988281 5.894531 10.945312 6.359375 C 11.46875 6.378906 12.097656 6.292969 12.476562 6.453125 C 12.660156 6.621094 12.394531 7.238281 12.765625 7.21875 C 12.835938 7.433594 13.300781 7.253906 13.53125 7.3125 C 13.914062 7.378906 14.078125 7.222656 14.390625 7.21875 C 16.300781 7.152344 18.214844 7.085938 20.230469 7.121094 C 20.390625 6.773438 20.292969 6.164062 20.710938 6.070312 C 21.089844 5.792969 21.519531 5.941406 22.050781 5.976562 C 22.273438 5.402344 22.085938 4.492188 21.859375 4.058594 C 19.101562 3.707031 16.757812 4.574219 13.816406 4.347656 Z M 2.234375 13.347656 C 2.097656 13.40625 2.246094 13.464844 2.234375 13.347656 C 2.621094 13.097656 2.820312 12.65625 3.382812 12.582031 C 3.742188 12.851562 3.496094 13.46875 3.195312 13.632812 C 3.132812 14.117188 2.703125 14.230469 2.714844 14.785156 C 2.859375 15.070312 2.886719 14.453125 3.097656 14.496094 C 3.261719 14.375 3.347656 14.171875 3.671875 14.210938 C 3.964844 14.707031 3.601562 15.261719 3.480469 15.648438 C 3.652344 15.761719 4.183594 15.507812 4.246094 15.933594 C 4.167969 16.367188 3.96875 16.675781 3.863281 17.082031 C 4.074219 17.378906 4.527344 17.441406 4.4375 18.039062 C 5.074219 17.941406 5.144531 17.277344 5.96875 17.371094 C 6.003906 17.496094 6.136719 17.519531 6.160156 17.65625 C 6.078125 17.992188 5.949219 18.3125 5.777344 18.613281 C 6.160156 18.601562 6.335938 18.019531 6.734375 18.328125 C 6.519531 18.734375 6.53125 18.988281 6.925781 19.1875 C 6.738281 19.253906 6.671875 19.441406 6.640625 19.664062 C 7.585938 19.496094 7.816406 18.609375 8.746094 18.421875 C 9.027344 18.523438 9.054688 18.875 9.035156 19.28125 C 9.351562 19.25 9.457031 19.003906 9.894531 19.089844 C 10.054688 19.410156 10.140625 19.800781 10.46875 19.953125 C 10.859375 19.945312 11.246094 19.882812 11.617188 19.761719 C 11.863281 19.769531 11.71875 20.171875 12.097656 20.046875 L 12.765625 20.046875 C 12.96875 19.617188 12.808594 18.816406 12.859375 18.230469 C 13.167969 17.964844 13.527344 17.769531 13.914062 17.65625 C 14.75 17.585938 15.289062 17.8125 16.117188 17.75 C 17.128906 17.585938 18.015625 17.289062 19.082031 17.179688 C 19.875 17.246094 20.621094 17.363281 21.09375 17.75 C 21.402344 18.417969 21.59375 19.128906 21.667969 19.859375 C 22.042969 19.785156 21.996094 19.292969 22.433594 19.28125 C 22.585938 19.308594 22.597656 19.191406 22.71875 19.1875 L 24.632812 19.1875 C 27.191406 18.714844 30.09375 18.585938 32.671875 18.136719 C 32.703125 15.773438 32.058594 14.089844 32.195312 11.625 C 31.910156 10.734375 31.84375 9.617188 31.429688 8.847656 C 30.09375 8.9375 29.085938 8.777344 27.886719 8.945312 C 25.101562 8.933594 22.371094 8.976562 19.75 9.136719 C 17.496094 9.175781 15.289062 9.265625 13.144531 9.421875 L 11.519531 9.421875 C 8.445312 9.800781 4.550781 8.949219 1.847656 9.804688 L 1.847656 10.664062 C 2.207031 10.703125 2.101562 10.277344 2.519531 10.378906 C 2.683594 10.34375 2.699219 10.453125 2.710938 10.570312 C 3.066406 10.605469 2.960938 10.183594 3.382812 10.285156 C 3.683594 10.945312 3.144531 11.398438 2.902344 11.816406 C 2.671875 12.316406 2.429688 12.808594 2.234375 13.347656 Z M 16.402344 19.378906 C 15.84375 19.535156 15.261719 19.597656 14.679688 19.570312 C 14.574219 20.167969 14.109375 20.402344 14.105469 21.101562 C 14.203125 21.484375 14.542969 21.621094 14.871094 21.769531 C 15.101562 22.054688 15.289062 22.371094 15.734375 22.441406 C 17.195312 22.300781 18.636719 22.015625 20.039062 21.578125 C 20.199219 21.183594 20.265625 20.757812 20.230469 20.335938 C 20.058594 19.902344 19.714844 19.640625 19.65625 19.089844 C 18.414062 19.070312 17.617188 19.644531 16.402344 19.378906 Z M 3.382812 20.046875 C 3.582031 20.335938 4.050781 20.1875 3.960938 19.664062 C 3.855469 19.667969 3.753906 19.632812 3.671875 19.570312 C 3.714844 19.871094 3.414062 19.824219 3.382812 20.046875 Z M 8.839844 19.953125 C 9.179688 20.023438 9.484375 19.644531 9.125 19.570312 C 9.15625 19.820312 8.753906 19.644531 8.839844 19.953125 Z M 2.332031 20.046875 C 2.222656 20.058594 2.183594 19.910156 2.140625 20.046875 C 2.152344 20.09375 2.191406 20.125 2.234375 20.125 C 2.28125 20.125 2.320312 20.09375 2.332031 20.046875 Z M 30.859375 21.003906 C 30.734375 21.011719 30.722656 21.128906 30.570312 21.101562 C 28.042969 21.15625 25.910156 21.605469 23.679688 21.960938 C 23.070312 21.921875 22.460938 21.953125 21.859375 22.058594 C 21.46875 22.429688 21.3125 23.042969 20.808594 23.300781 C 20.203125 23.785156 19.320312 23.984375 18.320312 24.066406 C 16.972656 23.898438 15.78125 24.167969 14.488281 23.96875 C 14.203125 23.75 13.945312 23.492188 13.722656 23.203125 C 13.410156 23.007812 13.460938 22.445312 13.246094 22.152344 C 12.070312 22.050781 10.886719 22.019531 9.703125 22.054688 C 9.402344 22.101562 9.367188 21.882812 9.035156 21.960938 C 7.179688 22.023438 5.078125 21.832031 3.386719 22.054688 C 3.691406 23.792969 3.820312 25.558594 3.769531 27.320312 C 4.152344 27.296875 4.539062 27.328125 4.917969 27.417969 C 5.777344 27.929688 6.648438 28.429688 7.023438 29.425781 C 7.222656 29.933594 7.167969 30.234375 7.117188 30.863281 C 7.460938 31.007812 8.074219 30.695312 8.652344 30.765625 C 9.039062 30.515625 9.785156 30.625 10.277344 30.480469 C 10.949219 30.511719 11.621094 30.480469 12.289062 30.386719 L 20.425781 30.386719 C 20.726562 30.429688 20.761719 30.210938 21.09375 30.289062 L 23.105469 30.289062 C 23.710938 30.15625 24.375 30.089844 25.019531 30 C 25.628906 29.96875 26.027344 30.203125 26.550781 30 C 26.683594 29.535156 26.75 29.050781 26.742188 28.566406 C 27.15625 28.246094 27.292969 27.648438 27.605469 27.226562 C 27.964844 27.078125 28.199219 26.773438 28.464844 26.652344 C 28.628906 26.578125 28.785156 26.621094 28.941406 26.554688 C 29.011719 26.527344 29.128906 26.398438 29.230469 26.363281 C 29.695312 26.207031 30.019531 26.214844 30.472656 26.078125 C 30.9375 26.121094 31.710938 26.265625 32.003906 26.175781 C 31.9375 25.316406 31.871094 24.457031 31.8125 23.589844 C 31.699219 22.746094 31.832031 21.65625 31.527344 21.003906 Z M 29.039062 27.992188 C 28.644531 28.558594 28.066406 28.933594 28.082031 29.90625 C 28.691406 30.082031 29.453125 29.890625 30.1875 29.90625 C 30.753906 29.921875 31.324219 30.164062 31.8125 29.90625 C 32.058594 29.382812 32.003906 28.566406 32.003906 27.800781 C 31.011719 27.542969 29.914062 27.835938 29.035156 27.992188 Z M 3.765625 30.097656 C 3.628906 30.25 3.5 30.410156 3.386719 30.578125 C 3.199219 30.679688 2.878906 30.640625 3 31.054688 C 3.113281 31.421875 3.839844 31.171875 4.246094 31.246094 C 4.792969 31.3125 5.101562 31.144531 5.585938 31.148438 L 5.585938 29.910156 C 5.179688 29.292969 4.503906 28.902344 3.769531 28.855469 Z M 3.765625 30.097656 "/>
</g>
</svg>
