<?xml version="1.0" encoding="UTF-8"?>
<svg xmlns="http://www.w3.org/2000/svg" xmlns:xlink="http://www.w3.org/1999/xlink" width="35px" height="35px" viewBox="0 0 35 35" version="1.1">
<g id="surface1">
<path style=" stroke:none;fill-rule:nonzero;fill:rgb(0%,0%,0%);fill-opacity:1;" d="M 13.675781 5.167969 C 10.628906 5.167969 7.773438 6.796875 6.21875 9.414062 C 6.078125 9.644531 6.15625 9.945312 6.386719 10.082031 C 6.464844 10.128906 6.550781 10.152344 6.632812 10.152344 C 6.800781 10.152344 6.960938 10.066406 7.054688 9.914062 C 8.433594 7.585938 10.972656 6.140625 13.675781 6.140625 C 13.945312 6.140625 14.160156 5.921875 14.160156 5.65625 C 14.160156 5.386719 13.945312 5.167969 13.675781 5.167969 Z M 13.675781 5.167969 "/>
<path style=" stroke:none;fill-rule:nonzero;fill:rgb(0%,0%,0%);fill-opacity:1;" d="M 5.816406 11.496094 C 5.554688 11.433594 5.292969 11.59375 5.234375 11.855469 C 5.089844 12.476562 5.007812 12.863281 5.007812 13.550781 C 5.007812 13.820312 5.222656 14.039062 5.492188 14.039062 C 5.761719 14.039062 5.976562 13.820312 5.976562 13.550781 C 5.976562 12.964844 6.042969 12.660156 6.179688 12.078125 C 6.242188 11.816406 6.078125 11.554688 5.816406 11.496094 Z M 5.816406 11.496094 "/>
<path style=" stroke:none;fill-rule:nonzero;fill:rgb(0%,0%,0%);fill-opacity:1;" d="M 32.382812 28.09375 L 24.535156 20.246094 C 24.34375 20.054688 24.152344 19.921875 23.964844 19.820312 C 24.992188 18.0625 25.585938 16.015625 25.585938 13.835938 C 25.585938 7.269531 20.242188 1.925781 13.675781 1.925781 C 7.109375 1.925781 1.765625 7.269531 1.765625 13.835938 C 1.765625 20.402344 7.109375 25.746094 13.675781 25.746094 C 16.011719 25.746094 18.195312 25.066406 20.035156 23.898438 C 20.132812 24.0625 20.257812 24.222656 20.410156 24.371094 L 28.257812 32.21875 C 28.808594 32.769531 29.539062 33.074219 30.320312 33.074219 C 31.097656 33.074219 31.828125 32.769531 32.382812 32.21875 C 32.933594 31.667969 33.234375 30.933594 33.234375 30.15625 C 33.234375 29.378906 32.933594 28.644531 32.382812 28.09375 Z M 3.710938 13.835938 C 3.710938 8.34375 8.179688 3.871094 13.675781 3.871094 C 19.171875 3.871094 23.640625 8.34375 23.640625 13.835938 C 23.640625 19.332031 19.167969 23.800781 13.675781 23.800781 C 8.179688 23.800781 3.710938 19.332031 3.710938 13.835938 Z M 31.007812 30.84375 C 30.636719 31.210938 29.996094 31.210938 29.628906 30.84375 L 21.785156 22.996094 C 21.714844 22.929688 21.691406 22.882812 21.6875 22.882812 C 21.6875 22.863281 21.714844 22.664062 22.269531 22.109375 C 22.824219 21.554688 23.027344 21.527344 23.03125 21.523438 C 23.042969 21.527344 23.089844 21.554688 23.160156 21.621094 L 31.003906 29.46875 C 31.191406 29.652344 31.289062 29.898438 31.289062 30.15625 C 31.289062 30.414062 31.1875 30.660156 31.007812 30.84375 Z M 31.007812 30.84375 "/>
</g>
</svg>
