<?xml version="1.0" encoding="UTF-8"?>
<svg xmlns="http://www.w3.org/2000/svg" xmlns:xlink="http://www.w3.org/1999/xlink" width="35px" height="35px" viewBox="0 0 35 35" version="1.1">
<g id="surface1">
<path style=" stroke:none;fill-rule:nonzero;fill:rgb(7.843138%,6.666667%,14.117648%);fill-opacity:1;" d="M 11.277344 30.289062 C 9.070312 31.363281 6.621094 31.855469 4.167969 31.71875 C 3.753906 31.71875 3.316406 31.710938 2.875 31.691406 C 2.464844 31.679688 2.097656 31.4375 1.925781 31.0625 C 1.75 30.691406 1.796875 30.253906 2.050781 29.933594 C 3.40625 28.304688 4.433594 26.429688 5.070312 24.410156 C 1.953125 18.804688 2.976562 11.804688 7.566406 7.324219 C 12.15625 2.839844 19.179688 1.988281 24.707031 5.242188 C 30.238281 8.492188 32.90625 15.042969 31.222656 21.234375 C 29.535156 27.421875 23.914062 31.71875 17.5 31.71875 C 15.34375 31.722656 13.214844 31.234375 11.277344 30.289062 Z M 11.75 28.074219 C 17.042969 30.953125 23.644531 29.472656 27.203125 24.609375 C 30.757812 19.75 30.171875 13.007812 25.828125 8.835938 C 21.484375 4.660156 14.722656 4.347656 10.007812 8.097656 C 5.296875 11.847656 4.082031 18.503906 7.171875 23.675781 C 7.3125 23.910156 7.359375 24.1875 7.304688 24.457031 C 6.871094 26.269531 6.101562 27.988281 5.03125 29.515625 C 6.976562 29.582031 8.902344 29.101562 10.59375 28.136719 C 10.777344 28.007812 11 27.9375 11.222656 27.9375 C 11.40625 27.9375 11.589844 27.984375 11.75 28.074219 Z M 11.667969 21.511719 C 11.0625 21.511719 10.574219 21.019531 10.574219 20.417969 C 10.574219 19.8125 11.0625 19.324219 11.667969 19.324219 L 21.875 19.324219 C 22.480469 19.324219 22.96875 19.8125 22.96875 20.417969 C 22.96875 21.019531 22.480469 21.511719 21.875 21.511719 Z M 11.667969 15.675781 C 11.0625 15.675781 10.574219 15.1875 10.574219 14.582031 C 10.574219 13.980469 11.0625 13.488281 11.667969 13.488281 L 18.957031 13.488281 C 19.5625 13.488281 20.050781 13.980469 20.050781 14.582031 C 20.050781 15.1875 19.5625 15.675781 18.957031 15.675781 Z M 11.667969 15.675781 "/>
</g>
</svg>
