<?xml version="1.0" encoding="UTF-8"?>
<svg xmlns="http://www.w3.org/2000/svg" xmlns:xlink="http://www.w3.org/1999/xlink" width="35px" height="35px" viewBox="0 0 35 35" version="1.1">
<g id="surface1">
<path style=" stroke:none;fill-rule:evenodd;fill:rgb(0%,0%,0%);fill-opacity:1;" d="M 17.5 17.5 C 13.621094 17.5 10.464844 14.359375 10.464844 10.5 C 10.464844 6.640625 13.621094 3.5 17.5 3.5 C 21.378906 3.5 24.535156 6.640625 24.535156 10.5 C 24.535156 14.359375 21.378906 17.5 17.5 17.5 M 24.109375 18.675781 C 26.898438 16.441406 28.523438 12.828125 27.925781 8.871094 C 27.230469 4.28125 23.394531 0.609375 18.765625 0.0742188 C 12.371094 -0.667969 6.949219 4.285156 6.949219 10.5 C 6.949219 13.808594 8.492188 16.753906 10.890625 18.675781 C 4.992188 20.882812 0.683594 26.066406 0.0078125 33.058594 C -0.0898438 34.09375 0.71875 35 1.765625 35 C 2.660156 35 3.421875 34.328125 3.5 33.441406 C 4.207031 25.628906 10.214844 21 17.5 21 C 24.785156 21 30.792969 25.628906 31.5 33.441406 C 31.578125 34.328125 32.339844 35 33.234375 35 C 34.28125 35 35.089844 34.09375 34.992188 33.058594 C 34.316406 26.066406 30.007812 20.882812 24.109375 18.675781 "/>
</g>
</svg>
