<?xml version="1.0" encoding="UTF-8"?>
<svg xmlns="http://www.w3.org/2000/svg" xmlns:xlink="http://www.w3.org/1999/xlink" width="20px" height="20px" viewBox="0 0 20 20" version="1.1">
<g id="surface1">
<path style=" stroke:none;fill-rule:evenodd;fill:rgb(0%,0%,0%);fill-opacity:1;" d="M 20 18.175781 L 18.585938 19.523438 L 14.34375 15.484375 L 15.757812 14.136719 Z M 8 13.808594 C 4.691406 13.808594 2 11.246094 2 8.09375 C 2 4.945312 4.691406 2.382812 8 2.382812 C 11.308594 2.382812 14 4.945312 14 8.09375 C 14 11.246094 11.308594 13.808594 8 13.808594 Z M 8 0.476562 C 3.582031 0.476562 0 3.886719 0 8.09375 C 0 12.304688 3.582031 15.714844 8 15.714844 C 12.417969 15.714844 16 12.304688 16 8.09375 C 16 3.886719 12.417969 0.476562 8 0.476562 Z M 8 0.476562 "/>
</g>
</svg>
